<svg xmlns="http://www.w3.org/2000/svg" width="424" height="496"><style>line, path, circle, rect, polygon{stroke:black;stroke-width:2;stroke-opacity:1;fill-opacity:1;stroke-linecap:round;stroke-linejoin:miter;}text{font-family:Iosevka Fixed, monospace;font-size:14px;}rect.backdrop{stroke:none;fill:white;}.broken{stroke-dasharray:8;}.filled{fill:black;}.bg_filled{fill:white;}.nofill{fill:white;}.end_marked_arrow{marker-end:url(#arrow);}.start_marked_arrow{marker-start:url(#arrow);}.end_marked_diamond{marker-end:url(#diamond);}.start_marked_diamond{marker-start:url(#diamond);}.end_marked_circle{marker-end:url(#circle);}.start_marked_circle{marker-start:url(#circle);}.end_marked_open_circle{marker-end:url(#open_circle);}.start_marked_open_circle{marker-start:url(#open_circle);}.end_marked_big_open_circle{marker-end:url(#big_open_circle);}.start_marked_big_open_circle{marker-start:url(#big_open_circle);}<!--separator--></style><defs><marker id="arrow" viewBox="-2 -2 8 8" refX="4" refY="2" markerWidth="7" markerHeight="7" orient="auto-start-reverse"><polygon points="0,0 0,4 4,2 0,0"></polygon></marker><marker id="diamond" viewBox="-2 -2 8 8" refX="4" refY="2" markerWidth="7" markerHeight="7" orient="auto-start-reverse"><polygon points="0,2 2,0 4,2 2,4 0,2"></polygon></marker><marker id="circle" viewBox="0 0 8 8" refX="4" refY="4" markerWidth="7" markerHeight="7" orient="auto-start-reverse"><circle cx="4" cy="4" r="2" class="filled"></circle></marker><marker id="open_circle" viewBox="0 0 8 8" refX="4" refY="4" markerWidth="7" markerHeight="7" orient="auto-start-reverse"><circle cx="4" cy="4" r="2" class="bg_filled"></circle></marker><marker id="big_open_circle" viewBox="0 0 8 8" refX="4" refY="4" markerWidth="7" markerHeight="7" orient="auto-start-reverse"><circle cx="4" cy="4" r="3" class="bg_filled"></circle></marker></defs><rect class="backdrop" x="0" y="0" width="424" height="496"></rect><rect x="4" y="8" width="328" height="80" class="solid nofill" rx="4"></rect><text x="154" y="28" >Aixt</text><text x="50" y="60" >Source</text><text x="106" y="60" >code</text><text x="202" y="60" >API</text><text x="234" y="60" >in</text><text x="258" y="60" >Aixt</text><rect x="76" y="200" width="336" height="80" class="solid nofill" rx="4"></rect><text x="250" y="220" >C</text><text x="114" y="252" >Transpiled</text><text x="202" y="252" >code</text><text x="298" y="252" >API</text><text x="330" y="252" >in</text><text x="354" y="252" >C</text><rect x="172" y="392" width="160" height="80" class="solid nofill" rx="4"></rect><rect x="196" y="424" width="112" height="32" class="solid nofill" rx="0"></rect><text x="210" y="444" >Binary</text><text x="266" y="444" >file</text><text x="194" y="412" >Machine</text><text x="122" y="140" >Aixt</text><text x="170" y="140" >to</text><text x="202" y="140" >C</text><text x="130" y="156" >Transpiler</text><text x="218" y="332" >Native</text><text x="282" y="332" >C</text><text x="226" y="348" >Compiler</text><g><line x1="28" y1="40" x2="156" y2="40" class="solid"></line><line x1="28" y1="40" x2="28" y2="72" class="solid"></line><line x1="156" y1="40" x2="156" y2="72" class="solid"></line><line x1="28" y1="72" x2="156" y2="72" class="solid"></line><line x1="132" y1="72" x2="132" y2="100" class="solid"></line><polygon points="128,100 136,100 132,112" class="filled"></polygon></g><g><line x1="180" y1="40" x2="308" y2="40" class="solid"></line><line x1="180" y1="40" x2="180" y2="72" class="solid"></line><line x1="308" y1="40" x2="308" y2="72" class="solid"></line><line x1="180" y1="72" x2="308" y2="72" class="solid"></line><line x1="204" y1="72" x2="204" y2="100" class="solid"></line><polygon points="200,100 208,100 204,112" class="filled"></polygon></g><g><line x1="100" y1="120" x2="236" y2="120" class="solid"></line><line x1="100" y1="120" x2="100" y2="168" class="solid"></line><line x1="236" y1="120" x2="236" y2="168" class="solid"></line><line x1="100" y1="168" x2="236" y2="168" class="solid"></line><line x1="172" y1="168" x2="172" y2="212" class="solid"></line><polygon points="168,212 176,212 172,224" class="filled"></polygon></g><g><line x1="100" y1="232" x2="244" y2="232" class="solid"></line><line x1="100" y1="232" x2="100" y2="264" class="solid"></line><line x1="244" y1="232" x2="244" y2="264" class="solid"></line><line x1="100" y1="264" x2="244" y2="264" class="solid"></line><line x1="220" y1="264" x2="220" y2="292" class="solid"></line><polygon points="216,292 224,292 220,304" class="filled"></polygon></g><g><line x1="268" y1="232" x2="388" y2="232" class="solid"></line><line x1="268" y1="232" x2="268" y2="264" class="solid"></line><line x1="388" y1="232" x2="388" y2="264" class="solid"></line><line x1="268" y1="264" x2="388" y2="264" class="solid"></line><line x1="292" y1="264" x2="292" y2="292" class="solid"></line><polygon points="288,292 296,292 292,304" class="filled"></polygon></g><g><line x1="196" y1="312" x2="316" y2="312" class="solid"></line><line x1="196" y1="312" x2="196" y2="360" class="solid"></line><line x1="316" y1="312" x2="316" y2="360" class="solid"></line><line x1="196" y1="360" x2="316" y2="360" class="solid"></line><line x1="268" y1="360" x2="268" y2="404" class="solid"></line><polygon points="264,404 272,404 268,416" class="filled"></polygon></g></svg>