<?xml version="1.0" encoding="UTF-8" standalone="no"?>
<!-- Created with Inkscape (http://www.inkscape.org/) -->

<svg
   width="760"
   height="420"
   viewBox="0 0 201.08333 111.125"
   version="1.1"
   id="svg5"
   sodipodi:docname="text-logo-sh.svg"
   inkscape:version="1.1.2 (0a00cf5339, 2022-02-04)"
   inkscape:export-filename="/home/fercho/aixt/assets/text-logo-sh.png"
   inkscape:export-xdpi="96"
   inkscape:export-ydpi="96"
   xmlns:inkscape="http://www.inkscape.org/namespaces/inkscape"
   xmlns:sodipodi="http://sodipodi.sourceforge.net/DTD/sodipodi-0.dtd"
   xmlns:xlink="http://www.w3.org/1999/xlink"
   xmlns="http://www.w3.org/2000/svg"
   xmlns:svg="http://www.w3.org/2000/svg">
  <sodipodi:namedview
     id="namedview7"
     pagecolor="#505050"
     bordercolor="#eeeeee"
     borderopacity="1"
     inkscape:pageshadow="0"
     inkscape:pageopacity="0"
     inkscape:pagecheckerboard="0"
     inkscape:document-units="mm"
     showgrid="false"
     units="px"
     inkscape:zoom="0.87885424"
     inkscape:cx="124.59404"
     inkscape:cy="266.25576"
     inkscape:window-width="1366"
     inkscape:window-height="710"
     inkscape:window-x="0"
     inkscape:window-y="0"
     inkscape:window-maximized="1"
     inkscape:current-layer="layer1"
     width="760px" />
  <defs
     id="defs2">
    <color-profile
       name="Apple-RGB"
       xlink:href="file:///usr/share/color/icc/colord/AppleRGB.icc"
       id="color-profile31546" />
  </defs>
  <g
     inkscape:label="Layer 1"
     inkscape:groupmode="layer"
     id="layer1">
    <rect
       style="fill:#6f7c84;fill-opacity:1;stroke-width:0.289324"
       id="rect1358-5-7"
       width="20.040573"
       height="76.065475"
       x="-56.63131"
       y="23.51833"
       ry="6.0882573"
       transform="matrix(-1,0,0.34202014,0.93969262,0,0)"
       rx="4.8292222" />
    <rect
       style="fill:#6f7c84;fill-opacity:1;stroke-width:0.289324"
       id="rect1358-5-4-2"
       width="20.040573"
       height="76.065475"
       x="52.67823"
       y="23.51833"
       ry="6.0882573"
       transform="matrix(1,0,-0.34202014,0.93969262,0,0)"
       rx="4.8292222" />
    <rect
       style="fill:#6f7c84;fill-opacity:1;stroke-width:0.187386"
       id="rect1358-7-5-8"
       width="17.587605"
       height="36.357811"
       x="98.868889"
       y="57.477356"
       ry="4.2771821"
       transform="matrix(1,0,-0.08715574,0.9961947,0,0)"
       rx="4.0851603" />
    <rect
       style="fill:#6f7c84;fill-opacity:1;stroke-width:0.113498"
       id="rect1358-7-5-5-1"
       width="17.47109"
       height="13.427221"
       x="99.14267"
       y="38.176205"
       ry="3.8076339"
       transform="matrix(1,0,-0.0959674,0.99538448,0,0)"
       rx="4.751503" />
    <rect
       style="fill:#6f7c84;fill-opacity:1;stroke-width:0.172277"
       id="rect1358-7-5-5-8-3"
       width="39.511566"
       height="13.679261"
       x="151.59529"
       y="38.892803"
       ry="3.8791063"
       transform="matrix(1,0,-0.21303524,0.97704452,0,0)"
       rx="5.3326416" />
    <rect
       style="fill:#6f7c84;fill-opacity:1;stroke-width:0.22968"
       id="rect1358-0-8-7"
       width="20.86989"
       height="46.031139"
       x="179.75584"
       y="70.825935"
       ry="7.8341484"
       transform="matrix(1,0,-0.58856927,0.80844679,0,0)"
       rx="6.5122128" />
    <rect
       style="fill:#6f7c84;fill-opacity:1;stroke-width:0.22968"
       id="rect1358-0-6"
       width="20.86989"
       height="46.031139"
       x="-92.630295"
       y="70.825935"
       ry="7.8341484"
       transform="matrix(-1,0,0.58856927,0.80844679,0,0)"
       rx="6.5122128" />
    <rect
       style="fill:#6f7c84;fill-opacity:1;stroke-width:0.266046"
       id="rect1358-7-2"
       width="17.964422"
       height="71.751205"
       x="167.6748"
       y="23.081833"
       ry="4.441021"
       transform="matrix(1,0,-0.08715574,0.9961947,0,0)"
       rx="3.535428" />
    <rect
       style="fill:#382a1f;fill-opacity:1;stroke-width:0.266046"
       id="rect1358-7"
       width="17.964422"
       height="71.751205"
       x="165.49957"
       y="21.074396"
       ry="4.441021"
       transform="matrix(1,0,-0.08715574,0.9961947,0,0)"
       rx="3.535428" />
    <rect
       style="fill:#564639;fill-opacity:1;stroke-width:0.187386"
       id="rect1358-7-5"
       width="17.587605"
       height="36.357811"
       x="96.69381"
       y="55.469681"
       ry="4.2771821"
       transform="matrix(1,0,-0.08715574,0.9961947,0,0)"
       rx="4.0851603" />
    <rect
       style="fill:#382a1f;fill-opacity:1;stroke-width:0.113498"
       id="rect1358-7-5-5"
       width="17.47109"
       height="13.427221"
       x="96.949745"
       y="36.166893"
       ry="3.8076339"
       transform="matrix(1,0,-0.0959674,0.99538448,0,0)"
       rx="4.751503" />
    <rect
       style="fill:#382a1f;fill-opacity:1;stroke-width:0.22968"
       id="rect1358-0"
       width="20.86989"
       height="46.031139"
       x="-90.087105"
       y="68.351601"
       ry="7.8341484"
       transform="matrix(-1,0,0.58856927,0.80844679,0,0)"
       rx="6.5122128" />
    <rect
       style="fill:#382a1f;fill-opacity:1;stroke-width:0.289324"
       id="rect1358-5"
       width="20.040573"
       height="76.065475"
       x="-55.395149"
       y="21.283556"
       ry="6.0882573"
       transform="matrix(-1,0,0.34202014,0.93969262,0,0)"
       rx="4.8292222" />
    <rect
       style="fill:#564639;fill-opacity:1;stroke-width:0.289324"
       id="rect1358-5-4"
       width="20.040573"
       height="76.065475"
       x="49.913395"
       y="21.283556"
       ry="6.0882573"
       transform="matrix(1,0,-0.34202014,0.93969262,0,0)"
       rx="4.8292222" />
    <rect
       style="fill:#564639;fill-opacity:1;stroke-width:0.22968"
       id="rect1358-0-8"
       width="20.86989"
       height="46.031139"
       x="176.29988"
       y="68.352058"
       ry="7.8341484"
       transform="matrix(1,0,-0.58856927,0.80844679,0,0)"
       rx="6.5122128" />
    <rect
       style="fill:#564639;fill-opacity:1;stroke-width:0.172277"
       id="rect1358-7-5-5-8"
       width="39.511566"
       height="13.679261"
       x="149.15923"
       y="36.845783"
       ry="3.8791063"
       transform="matrix(1,0,-0.21303524,0.97704452,0,0)"
       rx="5.3326416" />
  </g>
</svg>
